<svg width="20" height="20" viewBox="0 0 20 20" fill="none" xmlns="http://www.w3.org/2000/svg">
<path d="M0.734299 18.1565C0.343775 18.5471 0.343775 19.1802 0.734299 19.5708C1.12482 19.9613 1.75799 19.9613 2.14851 19.5708L0.734299 18.1565ZM19.468 1.83703C19.468 1.28474 19.0203 0.837026 18.468 0.837026H9.46803C8.91574 0.837026 8.46803 1.28474 8.46803 1.83703C8.46803 2.38931 8.91574 2.83703 9.46803 2.83703H17.468V10.837C17.468 11.3893 17.9157 11.837 18.468 11.837C19.0203 11.837 19.468 11.3893 19.468 10.837V1.83703ZM2.14851 19.5708L19.1751 2.54413L17.7609 1.12992L0.734299 18.1565L2.14851 19.5708Z" fill="#EBEEF3"/>
</svg>
