<svg width="70" height="50" viewBox="0 0 70 50" fill="none" xmlns="http://www.w3.org/2000/svg">
<rect x="70" y="50" width="70" height="50" rx="3" transform="rotate(-180 70 50)" fill="#BAB8B8"/>
<path d="M46.9961 26C47.5484 26 47.9961 25.5523 47.9961 25C47.9961 24.4477 47.5484 24 46.9961 24L46.9961 26ZM22.2097 24.2929C21.8192 24.6834 21.8192 25.3166 22.2097 25.7071L28.5737 32.0711C28.9642 32.4616 29.5974 32.4616 29.9879 32.0711C30.3784 31.6805 30.3784 31.0474 29.9879 30.6569L24.331 25L29.9879 19.3431C30.3784 18.9526 30.3784 18.3195 29.9879 17.9289C29.5974 17.5384 28.9642 17.5384 28.5737 17.9289L22.2097 24.2929ZM46.9961 24L22.9168 24L22.9168 26L46.9961 26L46.9961 24Z" fill="#EBEEF3"/>
</svg>
