<svg width="70" height="50" viewBox="0 0 70 50" fill="none" xmlns="http://www.w3.org/2000/svg">
<rect y="3.05176e-05" width="70" height="50" rx="3" fill="#262626"/>
<path d="M22.9141 24C22.3618 24 21.9141 24.4477 21.9141 25C21.9141 25.5523 22.3618 26 22.9141 26V24ZM47.7004 25.7071C48.091 25.3166 48.091 24.6834 47.7004 24.2929L41.3365 17.9289C40.946 17.5384 40.3128 17.5384 39.9223 17.9289C39.5317 18.3195 39.5317 18.9526 39.9223 19.3432L45.5791 25L39.9223 30.6569C39.5317 31.0474 39.5317 31.6806 39.9223 32.0711C40.3128 32.4616 40.946 32.4616 41.3365 32.0711L47.7004 25.7071ZM22.9141 26H46.9933V24H22.9141V26Z" fill="#EBEEF3"/>
</svg>
