<svg width="12" height="18" viewBox="0 0 12 18" fill="none" xmlns="http://www.w3.org/2000/svg">
<path d="M11.64 16.2V18H0.504V17.304C0.504 13.68 2.928 12.072 4.968 10.776L6.84 9.576C8.184 8.712 9.6 7.656 9.6 5.76C9.6 3.72 8.328 2.592 6.24 2.592C4.176 2.592 2.808 4.056 2.496 6.504L0.48 6.288C0.864 2.76 3.336 0.863999 6.24 0.863999C9.168 0.863999 11.736 2.424 11.736 5.688C11.736 8.904 9.288 10.08 7.464 11.28L5.784 12.384C3.864 13.632 2.76 14.856 2.712 16.2H11.64Z" fill="#262626" fill-opacity="0.61"/>
</svg>
