<svg width="13" height="19" viewBox="0 0 13 19" fill="none" xmlns="http://www.w3.org/2000/svg">
<path d="M4.8 8.568H6.336C8.28 8.568 9.744 7.464 9.744 5.568C9.744 3.672 8.28 2.592 6.456 2.592C4.656 2.592 3.36 3.648 3.072 5.76L1.056 5.544C1.44 2.544 3.528 0.863999 6.456 0.863999C9.408 0.863999 11.832 2.52 11.832 5.568C11.832 7.296 10.752 8.568 9.288 9.192V9.288C11.064 9.864 12.384 11.28 12.384 13.392C12.384 16.704 9.696 18.336 6.456 18.336C3.24 18.336 0.888 16.632 0.432 13.224L2.496 13.008C2.832 15.384 4.32 16.632 6.456 16.632C8.592 16.632 10.248 15.432 10.248 13.392C10.248 11.256 8.592 10.176 6.312 10.176H4.8V8.568Z" fill="#262626" fill-opacity="0.61"/>
</svg>
