<svg width="70" height="50" viewBox="0 0 70 50" fill="none" xmlns="http://www.w3.org/2000/svg">
<rect x="70" y="50.0001" width="70" height="50" rx="3" transform="rotate(-180 70 50.0001)" fill="#BAB8B8"/>
<g clip-path="url(#clip0_34_4190)">
<path d="M47.0781 26C47.6304 26 48.0781 25.5523 48.0781 25C48.0781 24.4477 47.6304 24 47.0781 24L47.0781 26ZM22.2917 24.2929C21.9012 24.6834 21.9012 25.3166 22.2917 25.7071L28.6557 32.0711C29.0462 32.4616 29.6794 32.4616 30.0699 32.0711C30.4604 31.6805 30.4604 31.0474 30.0699 30.6569L24.4131 25L30.0699 19.3431C30.4604 18.9526 30.4604 18.3195 30.0699 17.9289C29.6794 17.5384 29.0462 17.5384 28.6557 17.9289L22.2917 24.2929ZM47.0781 24L22.9988 24L22.9988 26L47.0781 26L47.0781 24Z" fill="#EBEEF3"/>
</g>
<defs>
<clipPath id="clip0_34_4190">
<rect x="70" width="50" height="70" rx="3" transform="rotate(90 70 0)" fill="white"/>
</clipPath>
</defs>
</svg>
