<svg width="70" height="50" viewBox="0 0 70 50" fill="none" xmlns="http://www.w3.org/2000/svg">
<rect width="70" height="50" rx="3" fill="#262626"/>
<path d="M22.918 24C22.3657 24 21.918 24.4477 21.918 25C21.918 25.5523 22.3657 26 22.918 26V24ZM47.7044 25.7071C48.0949 25.3166 48.0949 24.6834 47.7044 24.2929L41.3404 17.9289C40.9499 17.5384 40.3167 17.5384 39.9262 17.9289C39.5357 18.3195 39.5357 18.9526 39.9262 19.3431L45.583 25L39.9262 30.6569C39.5357 31.0474 39.5357 31.6805 39.9262 32.0711C40.3167 32.4616 40.9499 32.4616 41.3404 32.0711L47.7044 25.7071ZM22.918 26H46.9972V24H22.918V26Z" fill="#EBEEF3"/>
</svg>
