<svg width="188" height="49" viewBox="0 0 188 49" fill="none" xmlns="http://www.w3.org/2000/svg">
<path d="M163.814 48.1259C176.799 48.1259 187.326 37.3526 187.326 24.063C187.326 10.7734 176.799 0 163.814 0C150.828 0 140.301 10.7734 140.301 24.063C140.301 37.3526 150.828 48.1259 163.814 48.1259Z" fill="#262626"/>
<path d="M176.862 15.8224C176.057 16.1521 175.091 16.4817 174.286 16.6465C174.769 16.6465 175.252 15.8224 175.574 15.4928C175.896 14.9983 176.218 14.5039 176.379 13.8446V13.6798H176.218C175.252 14.1743 174.286 14.6687 173.158 14.8335C172.997 14.8335 172.997 14.8335 172.997 14.8335C172.836 14.6687 172.836 14.6687 172.675 14.5039C172.192 14.1743 171.709 13.8446 171.226 13.515C170.582 13.1854 169.776 13.0206 168.971 13.1854C168.166 13.1854 167.522 13.515 166.878 13.8446C166.233 14.1743 165.589 14.6687 165.106 15.328C164.623 15.9872 164.301 16.6465 164.14 17.4706C163.979 18.2946 163.979 18.9539 164.14 19.778C164.14 19.9428 164.14 19.9428 163.979 19.9428C159.792 19.2835 156.248 17.8002 153.35 14.5039C153.189 14.3391 153.189 14.3391 153.028 14.5039C151.739 16.4817 152.383 19.4483 153.994 20.9317C154.155 21.0965 154.477 21.2613 154.638 21.5909C154.477 21.5909 153.511 21.4261 152.544 20.9317C152.383 20.9317 152.383 20.9317 152.383 21.0965C152.383 21.2613 152.383 21.4261 152.383 21.7558C152.544 23.7335 153.994 25.5465 155.765 26.2057C155.926 26.3706 156.248 26.3706 156.41 26.3706C155.926 26.5354 155.604 26.5354 154.477 26.3706C154.316 26.3706 154.316 26.3706 154.316 26.5354C155.121 29.0076 157.054 29.6669 158.503 30.1613C158.664 30.1613 158.825 30.1613 159.147 30.1613C158.664 30.8206 157.054 31.4798 156.248 31.6446C154.799 32.1391 153.35 32.3039 151.9 32.1391C151.739 32.1391 151.578 32.1391 151.578 32.1391V32.3039C151.9 32.4687 152.222 32.6335 152.544 32.7983C153.511 33.2928 154.477 33.7872 155.443 33.952C160.758 35.4354 166.555 34.2817 170.582 30.3261C173.642 27.1946 174.769 22.9095 174.769 18.4595C174.769 18.2946 174.93 18.1298 175.091 18.1298C175.896 17.4706 176.54 16.8113 177.185 15.9872C176.862 16.152 176.862 15.9872 176.862 15.8224Z" fill="white"/>
<path d="M92.8956 48.1259C105.881 48.1259 116.408 37.3526 116.408 24.063C116.408 10.7734 105.881 0 92.8956 0C79.9099 0 69.3828 10.7734 69.3828 24.063C69.3828 37.3526 79.9099 48.1259 92.8956 48.1259Z" fill="#262626"/>
<path d="M100.146 14.9957C99.1793 14.9957 98.5352 15.655 98.5352 16.6439C98.5352 17.6328 99.3404 18.292 100.146 18.292C101.112 18.292 101.756 17.6328 101.756 16.6439C101.756 15.8198 101.112 14.9957 100.146 14.9957Z" fill="white"/>
<path d="M93.0608 17.1425C89.3568 17.1425 86.2969 20.2739 86.2969 24.0647C86.2969 27.8554 89.3568 30.9869 93.0608 30.9869C96.7649 30.9869 99.8248 27.8554 99.8248 24.0647C99.8248 20.2739 96.7649 17.1425 93.0608 17.1425ZM93.0608 28.5147C90.6451 28.5147 88.7126 26.5369 88.7126 24.0647C88.7126 21.5925 90.6451 19.6147 93.0608 19.6147C95.4765 19.6147 97.4091 21.5925 97.4091 24.0647C97.4091 26.5369 95.4765 28.5147 93.0608 28.5147Z" fill="white"/>
<path d="M98.3755 38.2381H87.4243C82.915 38.2381 79.2109 34.4474 79.2109 29.8326V18.6252C79.2109 14.0103 82.915 10.2196 87.4243 10.2196H98.3755C102.885 10.2196 106.589 14.0103 106.589 18.6252V29.6677C106.75 34.4474 103.046 38.2381 98.3755 38.2381ZM87.4243 12.6918C84.2034 12.6918 81.7877 15.3289 81.7877 18.4603V29.6677C81.7877 32.964 84.3644 35.4363 87.4243 35.4363H98.3755C101.596 35.4363 104.012 32.7992 104.012 29.6677V18.4603C104.012 15.164 101.435 12.6918 98.3755 12.6918H87.4243Z" fill="white"/>
<path d="M43.9126 24.0574C43.9126 11.5967 34.1419 1.59735 21.9661 1.59735C9.79025 1.59735 0.0195312 11.5967 0.0195312 24.0574C0.0195312 35.2874 7.98642 44.6713 18.5087 46.3635V30.5185H12.9469V24.0574H18.5087V19.1346C18.5087 13.4427 21.8157 10.366 26.7763 10.366C29.1814 10.366 31.7368 10.8275 31.7368 10.8275V16.3656H29.031C26.3253 16.3656 25.4234 18.0578 25.4234 19.9038V24.0574H31.5865L30.6845 30.5185H25.5737V46.2097C35.9457 44.6713 43.9126 35.2874 43.9126 24.0574Z" fill="#262626"/>
<path d="M27.7904 25.9924L28.6923 19.5313H22.5293V15.3777C22.5293 13.5317 23.4312 11.8395 26.1369 11.8395H28.8426V6.30141C28.8426 6.30141 26.2872 5.8399 23.8821 5.8399C18.9216 5.8399 15.6146 8.91662 15.6146 14.6085V19.5313H10.2031V25.9924H15.7649V41.6836C16.8171 41.8374 18.0197 41.9913 19.2222 41.9913C20.4248 41.9913 21.477 41.8374 22.6796 41.6836V25.9924H27.7904Z" fill="white"/>
</svg>
